<?xml version="1.0" encoding="UTF-8"?>
<!-- Generator: Adobe Illustrator 24.0.2, SVG Export Plug-In . SVG Version: 6.00 Build 0)  -->
<svg xmlns="http://www.w3.org/2000/svg" xmlns:xlink="http://www.w3.org/1999/xlink" version="1.1" id="Layer_1" x="0px" y="0px" viewBox="0 0 598.4 100" style="enable-background:new 0 0 598.4 100;" xml:space="preserve">
<g>
	<path d="M242,21.1L242,21.1c-7.5-0.1-14.8,2.9-20,8.3c-5.4,5.2-8.4,12.5-8.3,20c-0.1,7.5,2.9,14.8,8.3,20c5.2,5.4,12.5,8.4,20,8.3   c7.5,0.1,14.8-2.9,20-8.3c5.4-5.2,8.4-12.5,8.3-20c0.1-7.5-2.8-14.8-8.3-20C256.8,24,249.5,21,242,21.1z M259.2,66.6   c-4.5,4.6-10.7,7.2-17.2,7.1l0,0c-6.5,0.1-12.7-2.5-17.2-7.1c-4.6-4.5-7.2-10.7-7.1-17.2c-0.1-6.5,2.5-12.7,7.1-17.2   c4.5-4.6,10.7-7.2,17.2-7.1c6.5-0.1,12.7,2.5,17.2,7.1c4.6,4.5,7.2,10.7,7.1,17.2C266.4,55.9,263.8,62.1,259.2,66.6z"></path>
	<polygon points="166.2,55.9 147.2,22 142.8,22 164.2,60.2 164.2,77 168.2,77 168.2,60.2 189.5,22 185.2,22  "></polygon>
	<polygon points="10,22 6,22 6,77 44,77 44,73 10,73  "></polygon>
	<polygon points="75.2,77 113.5,77 113.5,73 79.3,73 79.3,51.7 113.3,51.7 113.3,47.6 79.3,47.6 79.3,26.1 113.5,26.1 113.5,22    75.2,22  "></polygon>
	<path d="M506.5,41.9c0-8.2-3.4-14-10.3-17.3c-3.5-1.7-7.9-2.6-13.2-2.6h-16.6V77h4V26H483c4.8,0,8.6,0.7,11.4,2.1   c5.3,2.7,8,7.3,8,13.9s-2.7,11.2-8,13.9c-2.8,1.4-7.2,2.1-13.3,2.1h-3.2l4,4L497.6,77h5.9l-15.8-15.4c4.1-0.4,8-1.8,11.4-4.1   C504,54.1,506.5,48.8,506.5,41.9z"></path>
	<polygon points="345.9,68.6 300.2,20.8 300.2,77 304.2,77 304.2,30.5 349.9,78.2 349.9,78.2 349.9,22 345.9,22  "></polygon>
	<path d="M563.4,20.4l-28.9,56.7h4.5l6.4-12.6l36.2,0l6.5,12.6h4.3L563.4,20.4z M547.5,60.5l16-31.2l16.1,31.2L547.5,60.5z"></path>
	<path d="M408.2,21.1L408.2,21.1c-7.5-0.1-14.8,2.9-20,8.3c-5.4,5.2-8.4,12.5-8.3,20c-0.1,7.5,2.9,14.8,8.3,20   c5.2,5.4,12.5,8.4,20,8.3c7.5,0.1,14.8-2.9,20-8.3c5.4-5.2,8.4-12.5,8.3-20c0.1-7.5-2.8-14.8-8.3-20C422.9,24,415.7,21,408.2,21.1z    M425.3,66.6c-4.5,4.6-10.7,7.2-17.2,7.1c-6.5,0.1-12.7-2.5-17.2-7.1c-4.6-4.5-7.2-10.7-7.1-17.2c-0.1-6.5,2.5-12.7,7.1-17.2   c4.5-4.6,10.7-7.2,17.2-7.1c6.5-0.1,12.7,2.5,17.2,7.1c4.6,4.5,7.2,10.7,7.1,17.2C432.5,55.9,429.9,62.1,425.3,66.6z"></path>
</g>
</svg>
